solid pidike_v2
facet normal 0.998079447613255 -0.061946882504447354 0.0
  outer loop
    vertex 21.32007352307984 19.48790693030481 0.0
    vertex 20.721347523079842 9.841317930304811 3.0305739999999997
    vertex 20.721347523079842 9.841317930304811 0.0
  endloop
endfacet
facet normal 0.998079447613255 -0.061946882504447354 0.0
  outer loop
    vertex 20.721347523079842 9.841317930304811 3.0305739999999997
    vertex 21.32007352307984 19.48790693030481 0.0
    vertex 21.32007352307984 19.48790693030481 3.0305739999999997
  endloop
endfacet
facet normal 0.7161711729623319 -0.6979246743150422 0.0
  outer loop
    vertex 20.721347523079842 9.841317930304811 0.0
    vertex 19.87140618742539 8.969155782001033 3.0305739999999997
    vertex 19.87140618742539 8.969155782001033 0.0
  endloop
endfacet
facet normal 0.7161711729623319 -0.6979246743150422 0.0
  outer loop
    vertex 19.87140618742539 8.969155782001033 3.0305739999999997
    vertex 20.721347523079842 9.841317930304811 0.0
    vertex 20.721347523079842 9.841317930304811 3.0305739999999997
  endloop
endfacet
facet normal 0.6155264197247444 -0.7881162519710132 0.0
  outer loop
    vertex 19.87140618742539 8.969155782001033 3.0305739999999997
    vertex 18.91162842844498 8.219560064060712 0.0
    vertex 19.87140618742539 8.969155782001033 0.0
  endloop
endfacet
facet normal 0.6155264197247444 -0.7881162519710132 0.0
  outer loop
    vertex 18.91162842844498 8.219560064060712 0.0
    vertex 19.87140618742539 8.969155782001033 3.0305739999999997
    vertex 18.91162842844498 8.219560064060712 3.0305739999999997
  endloop
endfacet
facet normal 0.5036397614906636 -0.8639137634310657 0.0
  outer loop
    vertex 18.91162842844498 8.219560064060712 3.0305739999999997
    vertex 17.859543518706698 7.60622130799771 0.0
    vertex 18.91162842844498 8.219560064060712 0.0
  endloop
endfacet
facet normal 0.5036397614906636 -0.8639137634310657 0.0
  outer loop
    vertex 17.859543518706698 7.60622130799771 0.0
    vertex 18.91162842844498 8.219560064060712 3.0305739999999997
    vertex 17.859543518706698 7.60622130799771 3.0305739999999997
  endloop
endfacet
facet normal 0.3825546835467196 -0.9239328515084143 0.0
  outer loop
    vertex 17.859543518706698 7.60622130799771 3.0305739999999997
    vertex 16.734366618152517 7.140341463566544 0.0
    vertex 17.859543518706698 7.60622130799771 0.0
  endloop
endfacet
facet normal 0.3825546835467196 -0.9239328515084143 0.0
  outer loop
    vertex 16.734366618152517 7.140341463566544 0.0
    vertex 17.859543518706698 7.60622130799771 3.0305739999999997
    vertex 16.734366618152517 7.140341463566544 3.0305739999999997
  endloop
endfacet
facet normal 0.25448267007802616 -0.9670773343585085 0.0
  outer loop
    vertex 16.734366618152517 7.140341463566544 3.0305739999999997
    vertex 15.556647830587792 6.8304293076174725 0.0
    vertex 16.734366618152517 7.140341463566544 0.0
  endloop
endfacet
facet normal 0.25448267007802616 -0.9670773343585085 0.0
  outer loop
    vertex 15.556647830587792 6.8304293076174725 0.0
    vertex 16.734366618152517 7.140341463566544 3.0305739999999997
    vertex 15.556647830587792 6.8304293076174725 3.0305739999999997
  endloop
endfacet
facet normal 0.12176281387083435 -0.9925592260204208 0.0
  outer loop
    vertex 15.556647830587792 6.8304293076174725 3.0305739999999997
    vertex 14.347896878906814 6.682145040757313 0.0
    vertex 15.556647830587792 6.8304293076174725 0.0
  endloop
endfacet
facet normal 0.12176281387083435 -0.9925592260204208 0.0
  outer loop
    vertex 14.347896878906814 6.682145040757313 0.0
    vertex 15.556647830587792 6.8304293076174725 3.0305739999999997
    vertex 14.347896878906814 6.682145040757313 3.0305739999999997
  endloop
endfacet
facet normal -0.013180904613875598 -0.9999131281034167 -0.0
  outer loop
    vertex 14.347896878906814 6.682145040757313 3.0305739999999997
    vertex 13.13019025394372 6.6981969100849685 0.0
    vertex 14.347896878906814 6.682145040757313 0.0
  endloop
endfacet
facet normal -0.013180904613875598 -0.9999131281034167 -0.0
  outer loop
    vertex 13.13019025394372 6.6981969100849685 0.0
    vertex 14.347896878906814 6.682145040757313 3.0305739999999997
    vertex 13.13019025394372 6.6981969100849685 3.0305739999999997
  endloop
endfacet
facet normal -0.15864363129578665 -0.987335909530939 -0.0
  outer loop
    vertex 13.13019025394372 6.6981969100849685 3.0305739999999997
    vertex 11.734567005226038 6.922443529660044 0.0
    vertex 13.13019025394372 6.6981969100849685 0.0
  endloop
endfacet
facet normal -0.15864363129578665 -0.987335909530939 -0.0
  outer loop
    vertex 11.734567005226038 6.922443529660044 0.0
    vertex 13.13019025394372 6.6981969100849685 3.0305739999999997
    vertex 11.734567005226038 6.922443529660044 3.0305739999999997
  endloop
endfacet
facet normal -0.311090855030618 -0.9503801765169132 -0.0
  outer loop
    vertex 11.734567005226038 6.922443529660044 3.0305739999999997
    vertex 10.391181581214116 7.362177996474337 0.0
    vertex 11.734567005226038 6.922443529660044 0.0
  endloop
endfacet
facet normal -0.311090855030618 -0.9503801765169132 -0.0
  outer loop
    vertex 10.391181581214116 7.362177996474337 0.0
    vertex 11.734567005226038 6.922443529660044 3.0305739999999997
    vertex 10.391181581214116 7.362177996474337 3.0305739999999997
  endloop
endfacet
facet normal -0.45588341382464914 -0.8900395008085785 -0.0
  outer loop
    vertex 10.391181581214116 7.362177996474337 3.0305739999999997
    vertex 9.133089165436742 8.006580256026233 0.0
    vertex 10.391181581214116 7.362177996474337 0.0
  endloop
endfacet
facet normal -0.45588341382464914 -0.8900395008085785 -0.0
  outer loop
    vertex 9.133089165436742 8.006580256026233 0.0
    vertex 10.391181581214116 7.362177996474337 3.0305739999999997
    vertex 9.133089165436742 8.006580256026233 3.0305739999999997
  endloop
endfacet
facet normal -0.5894585590288417 -0.8077986179659146 -0.0
  outer loop
    vertex 9.133089165436742 8.006580256026233 3.0305739999999997
    vertex 7.991246231707292 8.83979422221035 0.0
    vertex 9.133089165436742 8.006580256026233 0.0
  endloop
endfacet
facet normal -0.5894585590288417 -0.8077986179659146 -0.0
  outer loop
    vertex 7.991246231707292 8.83979422221035 0.0
    vertex 9.133089165436742 8.006580256026233 3.0305739999999997
    vertex 7.991246231707292 8.83979422221035 3.0305739999999997
  endloop
endfacet
facet normal -0.7085295563518356 -0.7056811374663993 -0.0
  outer loop
    vertex 6.993748832774916 9.841317930304811 3.0305739999999997
    vertex 7.991246231707292 8.83979422221035 0.0
    vertex 7.991246231707292 8.83979422221035 3.0305739999999997
  endloop
endfacet
facet normal -0.7085295563518356 -0.7056811374663993 -0.0
  outer loop
    vertex 7.991246231707292 8.83979422221035 0.0
    vertex 6.993748832774916 9.841317930304811 3.0305739999999997
    vertex 6.993748832774916 9.841317930304811 0.0
  endloop
endfacet
facet normal -0.9647085571349704 -0.26331995706851324 -0.0
  outer loop
    vertex 1.2853985230798455 30.75463742265933 3.0305739999999997
    vertex 6.993748832774916 9.841317930304811 0.0
    vertex 6.993748832774916 9.841317930304811 3.0305739999999997
  endloop
endfacet
facet normal -0.9647085571349704 -0.26331995706851324 -0.0
  outer loop
    vertex 6.993748832774916 9.841317930304811 0.0
    vertex 1.2853985230798455 30.75463742265933 3.0305739999999997
    vertex 1.2853985230798455 30.75463742265933 0.0
  endloop
endfacet
facet normal -0.9978589232386026 0.06540312923015786 0.0
  outer loop
    vertex 1.3200658659155788 31.283558864198817 3.0305739999999997
    vertex 1.2853985230798455 30.75463742265933 0.0
    vertex 1.2853985230798455 30.75463742265933 3.0305739999999997
  endloop
endfacet
facet normal -0.9978589232386026 0.06540312923015786 0.0
  outer loop
    vertex 1.2853985230798455 30.75463742265933 0.0
    vertex 1.3200658659155788 31.283558864198817 3.0305739999999997
    vertex 1.3200658659155788 31.283558864198817 0.0
  endloop
endfacet
facet normal -0.9807852804032381 0.19509032201609017 0.0
  outer loop
    vertex 1.5767112100673446 32.57380213832348 3.0305739999999997
    vertex 1.3200658659155788 31.283558864198817 0.0
    vertex 1.3200658659155788 31.283558864198817 3.0305739999999997
  endloop
endfacet
facet normal -0.9807852804032381 0.19509032201609017 0.0
  outer loop
    vertex 1.3200658659155788 31.283558864198817 0.0
    vertex 1.5767112100673446 32.57380213832348 3.0305739999999997
    vertex 1.5767112100673446 32.57380213832348 0.0
  endloop
endfacet
facet normal -0.9469301294951005 0.32143946530317696 0.0
  outer loop
    vertex 1.9995714593312286 33.81950826285337 3.0305739999999997
    vertex 1.5767112100673446 32.57380213832348 0.0
    vertex 1.5767112100673446 32.57380213832348 3.0305739999999997
  endloop
endfacet
facet normal -0.9469301294951005 0.32143946530317696 0.0
  outer loop
    vertex 1.5767112100673446 32.57380213832348 0.0
    vertex 1.9995714593312286 33.81950826285337 3.0305739999999997
    vertex 1.9995714593312286 33.81950826285337 0.0
  endloop
endfacet
facet normal -0.8968727415326517 0.44228869021907524 0.0
  outer loop
    vertex 2.5814113576032827 34.99936286062267 3.0305739999999997
    vertex 1.9995714593312286 33.81950826285337 0.0
    vertex 1.9995714593312286 33.81950826285337 3.0305739999999997
  endloop
endfacet
facet normal -0.8968727415326517 0.44228869021907524 0.0
  outer loop
    vertex 1.9995714593312286 33.81950826285337 0.0
    vertex 2.5814113576032827 34.99936286062267 3.0305739999999997
    vertex 2.5814113576032827 34.99936286062267 0.0
  endloop
endfacet
facet normal -0.8314696123025915 0.555570233019533 0.0
  outer loop
    vertex 3.3122754629073667 36.09317829234631 3.0305739999999997
    vertex 2.5814113576032827 34.99936286062267 0.0
    vertex 2.5814113576032827 34.99936286062267 3.0305739999999997
  endloop
endfacet
facet normal -0.8314696123025915 0.555570233019533 0.0
  outer loop
    vertex 2.5814113576032827 34.99936286062267 0.0
    vertex 3.3122754629073667 36.09317829234631 3.0305739999999997
    vertex 3.3122754629073667 36.09317829234631 0.0
  endloop
endfacet
facet normal -0.7518398074789074 0.6593458151001487 0.0
  outer loop
    vertex 4.179658487768276 37.08223907272428 3.0305739999999997
    vertex 3.3122754629073667 36.09317829234631 0.0
    vertex 3.3122754629073667 36.09317829234631 3.0305739999999997
  endloop
endfacet
facet normal -0.7518398074789074 0.6593458151001487 0.0
  outer loop
    vertex 3.3122754629073667 36.09317829234631 0.0
    vertex 4.179658487768276 37.08223907272428 3.0305739999999997
    vertex 4.179658487768276 37.08223907272428 0.0
  endloop
endfacet
facet normal -0.6593458151001063 0.7518398074789446 0.0
  outer loop
    vertex 4.179658487768276 37.08223907272428 3.0305739999999997
    vertex 5.168719268146218 37.94962209758506 0.0
    vertex 4.179658487768276 37.08223907272428 0.0
  endloop
endfacet
facet normal -0.6593458151001063 0.7518398074789446 0.0
  outer loop
    vertex 5.168719268146218 37.94962209758506 0.0
    vertex 4.179658487768276 37.08223907272428 3.0305739999999997
    vertex 5.168719268146218 37.94962209758506 3.0305739999999997
  endloop
endfacet
facet normal -0.5555702330195943 0.8314696123025506 0.0
  outer loop
    vertex 5.168719268146218 37.94962209758506 3.0305739999999997
    vertex 6.262534699869808 38.68048620288923 0.0
    vertex 5.168719268146218 37.94962209758506 0.0
  endloop
endfacet
facet normal -0.5555702330195943 0.8314696123025506 0.0
  outer loop
    vertex 6.262534699869808 38.68048620288923 0.0
    vertex 5.168719268146218 37.94962209758506 3.0305739999999997
    vertex 6.262534699869808 38.68048620288923 3.0305739999999997
  endloop
endfacet
facet normal -0.44228869021904266 0.8968727415326679 0.0
  outer loop
    vertex 6.262534699869808 38.68048620288923 3.0305739999999997
    vertex 7.442389297639145 39.26232610116125 0.0
    vertex 6.262534699869808 38.68048620288923 0.0
  endloop
endfacet
facet normal -0.44228869021904266 0.8968727415326679 0.0
  outer loop
    vertex 7.442389297639145 39.26232610116125 0.0
    vertex 6.262534699869808 38.68048620288923 3.0305739999999997
    vertex 7.442389297639145 39.26232610116125 3.0305739999999997
  endloop
endfacet
facet normal -0.3214394653031077 0.946930129495124 0.0
  outer loop
    vertex 7.442389297639145 39.26232610116125 3.0305739999999997
    vertex 8.68809542216905 39.685186350425035 0.0
    vertex 7.442389297639145 39.26232610116125 0.0
  endloop
endfacet
facet normal -0.3214394653031077 0.946930129495124 0.0
  outer loop
    vertex 8.68809542216905 39.685186350425035 0.0
    vertex 7.442389297639145 39.26232610116125 3.0305739999999997
    vertex 8.68809542216905 39.685186350425035 3.0305739999999997
  endloop
endfacet
facet normal -0.19509032201611326 0.9807852804032335 0.0
  outer loop
    vertex 8.68809542216905 39.685186350425035 3.0305739999999997
    vertex 9.978338696293669 39.94183169457683 0.0
    vertex 8.68809542216905 39.685186350425035 0.0
  endloop
endfacet
facet normal -0.19509032201611326 0.9807852804032335 0.0
  outer loop
    vertex 9.978338696293669 39.94183169457683 0.0
    vertex 8.68809542216905 39.685186350425035 3.0305739999999997
    vertex 9.978338696293669 39.94183169457683 3.0305739999999997
  endloop
endfacet
facet normal -0.06540312923015391 0.9978589232386029 0.0
  outer loop
    vertex 9.978338696293669 39.94183169457683 3.0305739999999997
    vertex 11.291042699869795 40.02787086062265 0.0
    vertex 9.978338696293669 39.94183169457683 0.0
  endloop
endfacet
facet normal -0.06540312923015391 0.9978589232386029 0.0
  outer loop
    vertex 11.291042699869795 40.02787086062265 0.0
    vertex 9.978338696293669 39.94183169457683 3.0305739999999997
    vertex 11.291042699869795 40.02787086062265 3.0305739999999997
  endloop
endfacet
facet normal 0.009954115920618697 0.9999504565608432 -4.731571727826823e-19
  outer loop
    vertex 11.291042699869795 40.02787086062265 3.0305739999999997
    vertex 22.79854608765903 39.91331816260906 0.0
    vertex 11.291042699869795 40.02787086062265 0.0
  endloop
endfacet
facet normal 0.009954115920618697 0.9999504565608432 -4.731571727826823e-19
  outer loop
    vertex 22.79854608765903 39.91331816260906 0.0
    vertex 11.291042699869795 40.02787086062265 3.0305739999999997
    vertex 22.79854608765903 39.91331816260906 3.0305739999999997
  endloop
endfacet
facet normal 0.7137560847933268 -0.7003943542180372 0.0
  outer loop
    vertex 30.83587452307983 33.84960138640344 0.0
    vertex 30.271684806957484 33.27464837538191 0.9768350000000005
    vertex 30.271684806957484 33.27464837538191 0.0
  endloop
endfacet
facet normal 0.7137560847933268 -0.7003943542180372 0.0
  outer loop
    vertex 30.271684806957484 33.27464837538191 0.9768350000000005
    vertex 30.83587452307983 33.84960138640344 0.0
    vertex 30.83587452307983 33.84960138640344 0.9768350000000005
  endloop
endfacet
facet normal 0.8595083892755185 -0.5111216379346544 0.0
  outer loop
    vertex 30.271684806957484 33.27464837538191 0.0
    vertex 29.729279788619635 32.36253347151997 0.9768350000000005
    vertex 29.729279788619635 32.36253347151997 0.0
  endloop
endfacet
facet normal 0.8595083892755185 -0.5111216379346544 0.0
  outer loop
    vertex 29.729279788619635 32.36253347151997 0.9768350000000005
    vertex 30.271684806957484 33.27464837538191 0.0
    vertex 30.271684806957484 33.27464837538191 0.9768350000000005
  endloop
endfacet
facet normal 0.9625093653748307 -0.27124844988633723 0.0
  outer loop
    vertex 29.729279788619635 32.36253347151997 0.0
    vertex 29.441429481539654 31.341113380431523 0.9768350000000005
    vertex 29.441429481539654 31.341113380431523 0.0
  endloop
endfacet
facet normal 0.9625093653748307 -0.27124844988633723 0.0
  outer loop
    vertex 29.441429481539654 31.341113380431523 0.9768350000000005
    vertex 29.729279788619635 32.36253347151997 0.0
    vertex 29.729279788619635 32.36253347151997 0.9768350000000005
  endloop
endfacet
facet normal 0.9999169188457706 -0.012890128237564254 0.0
  outer loop
    vertex 29.441429481539654 31.341113380431523 0.0
    vertex 29.427750408449878 30.279996193347767 0.9768350000000005
    vertex 29.427750408449878 30.279996193347767 0.0
  endloop
endfacet
facet normal 0.9999169188457706 -0.012890128237564254 0.0
  outer loop
    vertex 29.427750408449878 30.279996193347767 0.9768350000000005
    vertex 29.441429481539654 31.341113380431523 0.0
    vertex 29.441429481539654 31.341113380431523 0.9768350000000005
  endloop
endfacet
facet normal 0.9691817867382116 0.24634663434869097 0.0
  outer loop
    vertex 29.427750408449878 30.279996193347767 0.0
    vertex 29.68917477557568 29.251495292989365 0.9768350000000005
    vertex 29.68917477557568 29.251495292989365 0.0
  endloop
endfacet
facet normal 0.9691817867382116 0.24634663434869097 0.0
  outer loop
    vertex 29.68917477557568 29.251495292989365 0.9768350000000005
    vertex 29.427750408449878 30.279996193347767 0.0
    vertex 29.427750408449878 30.279996193347767 0.9768350000000005
  endloop
endfacet
facet normal 0.8723985175130771 0.4887952809111248 0.0
  outer loop
    vertex 29.68917477557568 29.251495292989365 0.0
    vertex 30.2078869443216 28.325701316037666 0.9768350000000005
    vertex 30.2078869443216 28.325701316037666 0.0
  endloop
endfacet
facet normal 0.8723985175130771 0.4887952809111248 0.0
  outer loop
    vertex 30.2078869443216 28.325701316037666 0.9768350000000005
    vertex 29.68917477557568 29.251495292989365 0.0
    vertex 29.68917477557568 29.251495292989365 0.9768350000000005
  endloop
endfacet
facet normal 0.716162731026135 0.6979333368518714 0.0
  outer loop
    vertex 30.2078869443216 28.325701316037666 0.0
    vertex 30.94853753760002 27.565705592075023 0.9768350000000005
    vertex 30.94853753760002 27.565705592075023 0.0
  endloop
endfacet
facet normal 0.716162731026135 0.6979333368518714 0.0
  outer loop
    vertex 30.94853753760002 27.565705592075023 0.9768350000000005
    vertex 30.2078869443216 28.325701316037666 0.0
    vertex 30.2078869443216 28.325701316037666 0.9768350000000005
  endloop
endfacet
facet normal 0.5111216379346442 0.8595083892755246 0.0
  outer loop
    vertex 30.94853753760002 27.565705592075023 0.9768350000000005
    vertex 31.860652441461962 27.023300573737185 0.0
    vertex 30.94853753760002 27.565705592075023 0.0
  endloop
endfacet
facet normal 0.5111216379346442 0.8595083892755246 0.0
  outer loop
    vertex 31.860652441461962 27.023300573737185 0.0
    vertex 30.94853753760002 27.565705592075023 0.9768350000000005
    vertex 31.860652441461962 27.023300573737185 0.9768350000000005
  endloop
endfacet
facet normal 0.27124844988634983 0.962509365374827 0.0
  outer loop
    vertex 31.860652441461962 27.023300573737185 0.9768350000000005
    vertex 32.882072532550396 26.735450266657196 0.0
    vertex 31.860652441461962 27.023300573737185 0.0
  endloop
endfacet
facet normal 0.27124844988634983 0.962509365374827 0.0
  outer loop
    vertex 32.882072532550396 26.735450266657196 0.0
    vertex 31.860652441461962 27.023300573737185 0.9768350000000005
    vertex 32.882072532550396 26.735450266657196 0.9768350000000005
  endloop
endfacet
facet normal 0.012890128237553899 0.9999169188457707 0.0
  outer loop
    vertex 32.882072532550396 26.735450266657196 0.9768350000000005
    vertex 33.943189719634134 26.72177119356743 0.0
    vertex 32.882072532550396 26.735450266657196 0.0
  endloop
endfacet
facet normal 0.012890128237553899 0.9999169188457707 0.0
  outer loop
    vertex 33.943189719634134 26.72177119356743 0.0
    vertex 32.882072532550396 26.735450266657196 0.9768350000000005
    vertex 33.943189719634134 26.72177119356743 0.9768350000000005
  endloop
endfacet
facet normal -0.2463466343486759 0.9691817867382154 0.0
  outer loop
    vertex 33.943189719634134 26.72177119356743 0.9768350000000005
    vertex 34.97169061999255 26.983195560693222 0.0
    vertex 33.943189719634134 26.72177119356743 0.0
  endloop
endfacet
facet normal -0.2463466343486759 0.9691817867382154 0.0
  outer loop
    vertex 34.97169061999255 26.983195560693222 0.0
    vertex 33.943189719634134 26.72177119356743 0.9768350000000005
    vertex 34.97169061999255 26.983195560693222 0.9768350000000005
  endloop
endfacet
facet normal -0.48879528091112023 0.8723985175130796 0.0
  outer loop
    vertex 34.97169061999255 26.983195560693222 0.9768350000000005
    vertex 35.89748459694427 27.501907729439143 0.0
    vertex 34.97169061999255 26.983195560693222 0.0
  endloop
endfacet
facet normal -0.48879528091112023 0.8723985175130796 0.0
  outer loop
    vertex 35.89748459694427 27.501907729439143 0.0
    vertex 34.97169061999255 26.983195560693222 0.9768350000000005
    vertex 35.89748459694427 27.501907729439143 0.9768350000000005
  endloop
endfacet
facet normal -0.6979333368518766 0.71616273102613 0.0
  outer loop
    vertex 35.89748459694427 27.501907729439143 0.9768350000000005
    vertex 36.657480320906885 28.24255832271755 0.0
    vertex 35.89748459694427 27.501907729439143 0.0
  endloop
endfacet
facet normal -0.6979333368518766 0.71616273102613 0.0
  outer loop
    vertex 36.657480320906885 28.24255832271755 0.0
    vertex 35.89748459694427 27.501907729439143 0.9768350000000005
    vertex 36.657480320906885 28.24255832271755 0.9768350000000005
  endloop
endfacet
facet normal -0.8595083892755212 0.5111216379346496 0.0
  outer loop
    vertex 37.19988533924474 29.154673226579497 0.9768350000000005
    vertex 36.657480320906885 28.24255832271755 0.0
    vertex 36.657480320906885 28.24255832271755 0.9768350000000005
  endloop
endfacet
facet normal -0.8595083892755212 0.5111216379346496 0.0
  outer loop
    vertex 36.657480320906885 28.24255832271755 0.0
    vertex 37.19988533924474 29.154673226579497 0.9768350000000005
    vertex 37.19988533924474 29.154673226579497 0.0
  endloop
endfacet
facet normal -0.9625093653748243 0.2712484498863597 0.0
  outer loop
    vertex 37.48773564632474 30.17609331766793 0.9768350000000005
    vertex 37.19988533924474 29.154673226579497 0.0
    vertex 37.19988533924474 29.154673226579497 0.9768350000000005
  endloop
endfacet
facet normal -0.9625093653748243 0.2712484498863597 0.0
  outer loop
    vertex 37.19988533924474 29.154673226579497 0.0
    vertex 37.48773564632474 30.17609331766793 0.9768350000000005
    vertex 37.48773564632474 30.17609331766793 0.0
  endloop
endfacet
facet normal -0.9999169188457709 0.012890128237542861 0.0
  outer loop
    vertex 37.50141471941449 31.2372105047517 0.9768350000000005
    vertex 37.48773564632474 30.17609331766793 0.0
    vertex 37.48773564632474 30.17609331766793 0.9768350000000005
  endloop
endfacet
facet normal -0.9999169188457709 0.012890128237542861 0.0
  outer loop
    vertex 37.48773564632474 30.17609331766793 0.0
    vertex 37.50141471941449 31.2372105047517 0.9768350000000005
    vertex 37.50141471941449 31.2372105047517 0.0
  endloop
endfacet
facet normal -0.9691817867382111 -0.24634663434869353 -0.0
  outer loop
    vertex 37.239990352288686 32.26571140511009 0.9768350000000005
    vertex 37.50141471941449 31.2372105047517 0.0
    vertex 37.50141471941449 31.2372105047517 0.9768350000000005
  endloop
endfacet
facet normal -0.9691817867382111 -0.24634663434869353 -0.0
  outer loop
    vertex 37.50141471941449 31.2372105047517 0.0
    vertex 37.239990352288686 32.26571140511009 0.9768350000000005
    vertex 37.239990352288686 32.26571140511009 0.0
  endloop
endfacet
facet normal -0.8723985175130705 -0.4887952809111364 -0.0
  outer loop
    vertex 36.72127818354274 33.1915053820618 0.9768350000000005
    vertex 37.239990352288686 32.26571140511009 0.0
    vertex 37.239990352288686 32.26571140511009 0.9768350000000005
  endloop
endfacet
facet normal -0.8723985175130705 -0.4887952809111364 -0.0
  outer loop
    vertex 37.239990352288686 32.26571140511009 0.0
    vertex 36.72127818354274 33.1915053820618 0.9768350000000005
    vertex 36.72127818354274 33.1915053820618 0.0
  endloop
endfacet
facet normal -0.7161627310261443 -0.6979333368518619 -0.0
  outer loop
    vertex 36.15593670700896 33.77161307203552 0.9768350000000005
    vertex 36.72127818354274 33.1915053820618 0.0
    vertex 36.72127818354274 33.1915053820618 0.9768350000000005
  endloop
endfacet
facet normal -0.7161627310261443 -0.6979333368518619 -0.0
  outer loop
    vertex 36.72127818354274 33.1915053820618 0.0
    vertex 36.15593670700896 33.77161307203552 0.9768350000000005
    vertex 36.15593670700896 33.77161307203552 0.0
  endloop
endfacet
facet normal -0.795757376075425 0.6056155533187327 0.0
  outer loop
    vertex 38.28600225136958 36.570443714941746 0.9768350000000005
    vertex 36.15593670700896 33.77161307203552 0.0
    vertex 36.15593670700896 33.77161307203552 0.9768350000000005
  endloop
endfacet
facet normal -0.795757376075425 0.6056155533187327 0.0
  outer loop
    vertex 36.15593670700896 33.77161307203552 0.0
    vertex 38.28600225136958 36.570443714941746 0.9768350000000005
    vertex 38.28600225136958 36.570443714941746 0.0
  endloop
endfacet
facet normal 0.06540312923014313 0.9978589232386035 0.0
  outer loop
    vertex 46.55379652307982 39.67684393030481 3.0305739999999997
    vertex 47.86650052665599 39.590804764259 0.0
    vertex 46.55379652307982 39.67684393030481 0.0
  endloop
endfacet
facet normal 0.06540312923014313 0.9978589232386035 0.0
  outer loop
    vertex 47.86650052665599 39.590804764259 0.0
    vertex 46.55379652307982 39.67684393030481 3.0305739999999997
    vertex 47.86650052665599 39.590804764259 3.0305739999999997
  endloop
endfacet
facet normal 0.19509032201612728 0.9807852804032307 0.0
  outer loop
    vertex 47.86650052665599 39.590804764259 3.0305739999999997
    vertex 49.15674380078063 39.33415942010719 0.0
    vertex 47.86650052665599 39.590804764259 0.0
  endloop
endfacet
facet normal 0.19509032201612728 0.9807852804032307 0.0
  outer loop
    vertex 49.15674380078063 39.33415942010719 0.0
    vertex 47.86650052665599 39.590804764259 3.0305739999999997
    vertex 49.15674380078063 39.33415942010719 3.0305739999999997
  endloop
endfacet
facet normal 0.3214394653031708 0.9469301294951026 0.0
  outer loop
    vertex 49.15674380078063 39.33415942010719 3.0305739999999997
    vertex 50.402449925310464 38.911299170843336 0.0
    vertex 49.15674380078063 39.33415942010719 0.0
  endloop
endfacet
facet normal 0.3214394653031708 0.9469301294951026 0.0
  outer loop
    vertex 50.402449925310464 38.911299170843336 0.0
    vertex 49.15674380078063 39.33415942010719 3.0305739999999997
    vertex 50.402449925310464 38.911299170843336 3.0305739999999997
  endloop
endfacet
facet normal 0.44228869021900136 0.8968727415326883 0.0
  outer loop
    vertex 50.402449925310464 38.911299170843336 3.0305739999999997
    vertex 51.58230452307982 38.32945927257137 0.0
    vertex 50.402449925310464 38.911299170843336 0.0
  endloop
endfacet
facet normal 0.44228869021900136 0.8968727415326883 0.0
  outer loop
    vertex 51.58230452307982 38.32945927257137 0.0
    vertex 50.402449925310464 38.911299170843336 3.0305739999999997
    vertex 51.58230452307982 38.32945927257137 3.0305739999999997
  endloop
endfacet
facet normal 0.5555702330196062 0.8314696123025426 0.0
  outer loop
    vertex 51.58230452307982 38.32945927257137 3.0305739999999997
    vertex 52.676119954803376 37.598595167267206 0.0
    vertex 51.58230452307982 38.32945927257137 0.0
  endloop
endfacet
facet normal 0.5555702330196062 0.8314696123025426 0.0
  outer loop
    vertex 52.676119954803376 37.598595167267206 0.0
    vertex 51.58230452307982 38.32945927257137 3.0305739999999997
    vertex 52.676119954803376 37.598595167267206 3.0305739999999997
  endloop
endfacet
facet normal 0.6593458151000723 0.7518398074789746 0.0
  outer loop
    vertex 52.676119954803376 37.598595167267206 3.0305739999999997
    vertex 53.66518073518141 36.73121214240641 0.0
    vertex 52.676119954803376 37.598595167267206 0.0
  endloop
endfacet
facet normal 0.6593458151000723 0.7518398074789746 0.0
  outer loop
    vertex 53.66518073518141 36.73121214240641 0.0
    vertex 52.676119954803376 37.598595167267206 3.0305739999999997
    vertex 53.66518073518141 36.73121214240641 3.0305739999999997
  endloop
endfacet
facet normal 0.7518398074789654 0.6593458151000825 0.0
  outer loop
    vertex 53.66518073518141 36.73121214240641 0.0
    vertex 54.53256376004223 35.74215136202837 3.0305739999999997
    vertex 54.53256376004223 35.74215136202837 0.0
  endloop
endfacet
facet normal 0.7518398074789654 0.6593458151000825 0.0
  outer loop
    vertex 54.53256376004223 35.74215136202837 3.0305739999999997
    vertex 53.66518073518141 36.73121214240641 0.0
    vertex 53.66518073518141 36.73121214240641 3.0305739999999997
  endloop
endfacet
facet normal 0.8314696123025453 0.5555702330196023 0.0
  outer loop
    vertex 54.53256376004223 35.74215136202837 0.0
    vertex 55.263427865346394 34.6483359303048 3.0305739999999997
    vertex 55.263427865346394 34.6483359303048 0.0
  endloop
endfacet
facet normal 0.8314696123025453 0.5555702330196023 0.0
  outer loop
    vertex 55.263427865346394 34.6483359303048 3.0305739999999997
    vertex 54.53256376004223 35.74215136202837 0.0
    vertex 54.53256376004223 35.74215136202837 3.0305739999999997
  endloop
endfacet
facet normal 0.8968727415326941 0.44228869021898937 0.0
  outer loop
    vertex 55.263427865346394 34.6483359303048 0.0
    vertex 55.845267763618345 33.468481332535426 3.0305739999999997
    vertex 55.845267763618345 33.468481332535426 0.0
  endloop
endfacet
facet normal 0.8968727415326941 0.44228869021898937 0.0
  outer loop
    vertex 55.845267763618345 33.468481332535426 3.0305739999999997
    vertex 55.263427865346394 34.6483359303048 0.0
    vertex 55.263427865346394 34.6483359303048 3.0305739999999997
  endloop
endfacet
facet normal 0.9469301294951009 0.3214394653031759 0.0
  outer loop
    vertex 55.845267763618345 33.468481332535426 0.0
    vertex 56.268128012882215 32.22277520800559 3.0305739999999997
    vertex 56.268128012882215 32.22277520800559 0.0
  endloop
endfacet
facet normal 0.9469301294951009 0.3214394653031759 0.0
  outer loop
    vertex 56.268128012882215 32.22277520800559 3.0305739999999997
    vertex 55.845267763618345 33.468481332535426 0.0
    vertex 55.845267763618345 33.468481332535426 3.0305739999999997
  endloop
endfacet
facet normal 0.9807852804032328 0.19509032201611742 0.0
  outer loop
    vertex 56.268128012882215 32.22277520800559 0.0
    vertex 56.524773357034015 30.932531933880938 3.0305739999999997
    vertex 56.524773357034015 30.932531933880938 0.0
  endloop
endfacet
facet normal 0.9807852804032328 0.19509032201611742 0.0
  outer loop
    vertex 56.524773357034015 30.932531933880938 3.0305739999999997
    vertex 56.268128012882215 32.22277520800559 0.0
    vertex 56.268128012882215 32.22277520800559 3.0305739999999997
  endloop
endfacet
facet normal 0.9978589232386029 0.06540312923015391 0.0
  outer loop
    vertex 56.524773357034015 30.932531933880938 0.0
    vertex 56.61081252307984 29.61982793030481 3.0305739999999997
    vertex 56.61081252307984 29.61982793030481 0.0
  endloop
endfacet
facet normal 0.9978589232386029 0.06540312923015391 0.0
  outer loop
    vertex 56.61081252307984 29.61982793030481 3.0305739999999997
    vertex 56.524773357034015 30.932531933880938 0.0
    vertex 56.524773357034015 30.932531933880938 3.0305739999999997
  endloop
endfacet
facet normal 0.9885178602453975 -0.15110407001752482 -7.365191727603954e-17
  outer loop
    vertex 52.42677683695621 2.2480039737586393 0.0
    vertex 56.61081252307984 29.61982793030481 3.0305739999999997
    vertex 52.42677683695621 2.2480039737586353 3.0305739999999997
  endloop
endfacet
facet normal 0.9885178602453975 -0.15110407001752482 -7.365191727603954e-17
  outer loop
    vertex 56.61081252307984 29.61982793030481 3.0305739999999997
    vertex 52.42677683695621 2.2480039737586393 0.0
    vertex 56.61081252307984 29.61982793030481 0.0
  endloop
endfacet
facet normal -0.0 -1.0 -0.0
  outer loop
    vertex 26.530377523079828 19.48790693030481 3.0305739999999997
    vertex 21.32007352307984 19.48790693030481 0.0
    vertex 26.530377523079828 19.48790693030481 0.0
  endloop
endfacet
facet normal -0.0 -1.0 -0.0
  outer loop
    vertex 21.32007352307984 19.48790693030481 0.0
    vertex 26.530377523079828 19.48790693030481 3.0305739999999997
    vertex 21.32007352307984 19.48790693030481 3.0305739999999997
  endloop
endfacet
facet normal 6.586316892027417e-33 -1.1081021198882711e-33 1.0
  outer loop
    vertex 52.42677683695621 2.2480039737586353 3.0305739999999997
    vertex 26.530377523079828 19.48790693030481 3.0305739999999997
    vertex 25.99672789383006 2.2480039737586326 3.0305739999999997
  endloop
endfacet
facet normal 6.586316892027417e-33 -1.1081021198882711e-33 1.0
  outer loop
    vertex 26.530377523079828 19.48790693030481 3.0305739999999997
    vertex 52.42677683695621 2.2480039737586353 3.0305739999999997
    vertex 27.627095840659706 21.812799818596627 3.0305739999999997
  endloop
endfacet
facet normal 6.586316892027417e-33 -1.1081021198882711e-33 1.0
  outer loop
    vertex 27.627095840659706 21.812799818596627 3.0305739999999997
    vertex 52.42677683695621 2.2480039737586353 3.0305739999999997
    vertex 27.761608287890713 21.74827712641833 3.0305739999999997
  endloop
endfacet
facet normal 6.586316892027417e-33 -1.1081021198882711e-33 1.0
  outer loop
    vertex 27.761608287890713 21.74827712641833 3.0305739999999997
    vertex 52.42677683695621 2.2480039737586353 3.0305739999999997
    vertex 28.845701863798595 21.228261042177113 3.0305739999999997
  endloop
endfacet
facet normal 6.586316892027417e-33 -1.1081021198882711e-33 1.0
  outer loop
    vertex 28.845701863798595 21.228261042177113 3.0305739999999997
    vertex 52.42677683695621 2.2480039737586353 3.0305739999999997
    vertex 30.14134770473038 20.60676794256113 3.0305739999999997
  endloop
endfacet
facet normal 6.586316892027417e-33 -1.1081021198882711e-33 1.0
  outer loop
    vertex 30.14134770473038 20.60676794256113 3.0305739999999997
    vertex 52.42677683695621 2.2480039737586353 3.0305739999999997
    vertex 32.882072532550396 20.09256687277659 3.0305739999999997
  endloop
endfacet
facet normal 6.586316892027417e-33 -1.1081021198882711e-33 1.0
  outer loop
    vertex 32.882072532550396 20.09256687277659 3.0305739999999997
    vertex 52.42677683695621 2.2480039737586353 3.0305739999999997
    vertex 35.66249445636573 20.30523856239138 3.0305739999999997
  endloop
endfacet
facet normal 6.586316892027417e-33 -1.1081021198882711e-33 1.0
  outer loop
    vertex 35.66249445636573 20.30523856239138 3.0305739999999997
    vertex 52.42677683695621 2.2480039737586353 3.0305739999999997
    vertex 38.293132316932855 21.230289787214843 3.0305739999999997
  endloop
endfacet
facet normal 6.586316892027417e-33 -1.1081021198882711e-33 1.0
  outer loop
    vertex 38.293132316932855 21.230289787214843 3.0305739999999997
    vertex 52.42677683695621 2.2480039737586353 3.0305739999999997
    vertex 40.59471249138874 22.80467983499468 3.0305739999999997
  endloop
endfacet
facet normal 6.586316892027417e-33 -1.1081021198882711e-33 1.0
  outer loop
    vertex 40.59471249138874 22.80467983499468 3.0305739999999997
    vertex 52.42677683695621 2.2480039737586353 3.0305739999999997
    vertex 42.41038609438529 24.92111662577727 3.0305739999999997
  endloop
endfacet
facet normal 6.586316892027417e-33 -1.1081021198882711e-33 1.0
  outer loop
    vertex 42.41038609438529 24.92111662577727 3.0305739999999997
    vertex 52.42677683695621 2.2480039737586353 3.0305739999999997
    vertex 43.616417970420784 27.435368489847942 3.0305739999999997
  endloop
endfacet
facet normal 6.586316892027417e-33 -1.1081021198882711e-33 1.0
  outer loop
    vertex 43.616417970420784 27.435368489847942 3.0305739999999997
    vertex 52.42677683695621 2.2480039737586353 3.0305739999999997
    vertex 44.13061904020532 30.176093317667952 3.0305739999999997
  endloop
endfacet
facet normal 6.586316892027417e-33 -1.1081021198882711e-33 1.0
  outer loop
    vertex 44.13061904020532 30.176093317667952 3.0305739999999997
    vertex 52.42677683695621 2.2480039737586353 3.0305739999999997
    vertex 44.13061904020532 39.700965714941745 3.0305739999999997
  endloop
endfacet
facet normal 6.586316892027417e-33 -1.1081021198882711e-33 1.0
  outer loop
    vertex 44.13061904020532 39.700965714941745 3.0305739999999997
    vertex 52.42677683695621 2.2480039737586353 3.0305739999999997
    vertex 46.55379652307982 39.67684393030481 3.0305739999999997
  endloop
endfacet
facet normal 6.586316892027417e-33 -1.1081021198882711e-33 1.0
  outer loop
    vertex 46.55379652307982 39.67684393030481 3.0305739999999997
    vertex 52.42677683695621 2.2480039737586353 3.0305739999999997
    vertex 47.86650052665599 39.590804764259 3.0305739999999997
  endloop
endfacet
facet normal 6.586316892027417e-33 -1.1081021198882711e-33 1.0
  outer loop
    vertex 47.86650052665599 39.590804764259 3.0305739999999997
    vertex 52.42677683695621 2.2480039737586353 3.0305739999999997
    vertex 49.15674380078063 39.33415942010719 3.0305739999999997
  endloop
endfacet
facet normal 6.586316892027417e-33 -1.1081021198882711e-33 1.0
  outer loop
    vertex 49.15674380078063 39.33415942010719 3.0305739999999997
    vertex 52.42677683695621 2.2480039737586353 3.0305739999999997
    vertex 50.402449925310464 38.911299170843336 3.0305739999999997
  endloop
endfacet
facet normal 6.586316892027417e-33 -1.1081021198882711e-33 1.0
  outer loop
    vertex 50.402449925310464 38.911299170843336 3.0305739999999997
    vertex 52.42677683695621 2.2480039737586353 3.0305739999999997
    vertex 51.58230452307982 38.32945927257137 3.0305739999999997
  endloop
endfacet
facet normal 6.586316892027417e-33 -1.1081021198882711e-33 1.0
  outer loop
    vertex 51.58230452307982 38.32945927257137 3.0305739999999997
    vertex 52.42677683695621 2.2480039737586353 3.0305739999999997
    vertex 52.676119954803376 37.598595167267206 3.0305739999999997
  endloop
endfacet
facet normal 6.586316892027417e-33 -1.1081021198882711e-33 1.0
  outer loop
    vertex 52.676119954803376 37.598595167267206 3.0305739999999997
    vertex 52.42677683695621 2.2480039737586353 3.0305739999999997
    vertex 56.61081252307984 29.61982793030481 3.0305739999999997
  endloop
endfacet
facet normal 6.586316892027417e-33 -1.1081021198882711e-33 1.0
  outer loop
    vertex 52.676119954803376 37.598595167267206 3.0305739999999997
    vertex 56.61081252307984 29.61982793030481 3.0305739999999997
    vertex 53.66518073518141 36.73121214240641 3.0305739999999997
  endloop
endfacet
facet normal 6.586316892027417e-33 -1.1081021198882711e-33 1.0
  outer loop
    vertex 53.66518073518141 36.73121214240641 3.0305739999999997
    vertex 56.61081252307984 29.61982793030481 3.0305739999999997
    vertex 54.53256376004223 35.74215136202837 3.0305739999999997
  endloop
endfacet
facet normal 6.586316892027417e-33 -1.1081021198882711e-33 1.0
  outer loop
    vertex 54.53256376004223 35.74215136202837 3.0305739999999997
    vertex 56.61081252307984 29.61982793030481 3.0305739999999997
    vertex 55.263427865346394 34.6483359303048 3.0305739999999997
  endloop
endfacet
facet normal 6.586316892027417e-33 -1.1081021198882711e-33 1.0
  outer loop
    vertex 55.263427865346394 34.6483359303048 3.0305739999999997
    vertex 56.61081252307984 29.61982793030481 3.0305739999999997
    vertex 55.845267763618345 33.468481332535426 3.0305739999999997
  endloop
endfacet
facet normal 6.586316892027417e-33 -1.1081021198882711e-33 1.0
  outer loop
    vertex 55.845267763618345 33.468481332535426 3.0305739999999997
    vertex 56.61081252307984 29.61982793030481 3.0305739999999997
    vertex 56.268128012882215 32.22277520800559 3.0305739999999997
  endloop
endfacet
facet normal 6.586316892027417e-33 -1.1081021198882711e-33 1.0
  outer loop
    vertex 56.268128012882215 32.22277520800559 3.0305739999999997
    vertex 56.61081252307984 29.61982793030481 3.0305739999999997
    vertex 56.524773357034015 30.932531933880938 3.0305739999999997
  endloop
endfacet
facet normal 6.586316892027417e-33 -1.1081021198882711e-33 1.0
  outer loop
    vertex 21.32007352307984 19.48790693030481 3.0305739999999997
    vertex 23.011217777273824 28.560691456616183 3.0305739999999997
    vertex 22.79854608765903 31.341113380431512 3.0305739999999997
  endloop
endfacet
facet normal 6.586316892027417e-33 -1.1081021198882711e-33 1.0
  outer loop
    vertex 23.011217777273824 28.560691456616183 3.0305739999999997
    vertex 21.32007352307984 19.48790693030481 3.0305739999999997
    vertex 23.93626900209728 25.930053596049063 3.0305739999999997
  endloop
endfacet
facet normal 6.586316892027417e-33 -1.1081021198882711e-33 1.0
  outer loop
    vertex 23.93626900209728 25.930053596049063 3.0305739999999997
    vertex 21.32007352307984 19.48790693030481 3.0305739999999997
    vertex 26.530377523079828 19.48790693030481 3.0305739999999997
  endloop
endfacet
facet normal 6.586316892027417e-33 -1.1081021198882711e-33 1.0
  outer loop
    vertex 23.93626900209728 25.930053596049063 3.0305739999999997
    vertex 26.530377523079828 19.48790693030481 3.0305739999999997
    vertex 25.510659049877116 23.62847342159317 3.0305739999999997
  endloop
endfacet
facet normal 6.586316892027417e-33 -1.1081021198882711e-33 1.0
  outer loop
    vertex 25.510659049877116 23.62847342159317 3.0305739999999997
    vertex 26.530377523079828 19.48790693030481 3.0305739999999997
    vertex 27.627095840659706 21.812799818596627 3.0305739999999997
  endloop
endfacet
facet normal 6.586316892027417e-33 -1.1081021198882711e-33 1.0
  outer loop
    vertex 6.993748832774916 9.841317930304811 3.0305739999999997
    vertex 1.3200658659155788 31.283558864198817 3.0305739999999997
    vertex 1.2853985230798455 30.75463742265933 3.0305739999999997
  endloop
endfacet
facet normal 6.586316892027417e-33 -1.1081021198882711e-33 1.0
  outer loop
    vertex 1.3200658659155788 31.283558864198817 3.0305739999999997
    vertex 6.993748832774916 9.841317930304811 3.0305739999999997
    vertex 1.5767112100673446 32.57380213832348 3.0305739999999997
  endloop
endfacet
facet normal 6.586316892027417e-33 -1.1081021198882711e-33 1.0
  outer loop
    vertex 1.5767112100673446 32.57380213832348 3.0305739999999997
    vertex 6.993748832774916 9.841317930304811 3.0305739999999997
    vertex 1.9995714593312286 33.81950826285337 3.0305739999999997
  endloop
endfacet
facet normal 6.586316892027417e-33 -1.1081021198882711e-33 1.0
  outer loop
    vertex 1.9995714593312286 33.81950826285337 3.0305739999999997
    vertex 6.993748832774916 9.841317930304811 3.0305739999999997
    vertex 2.5814113576032827 34.99936286062267 3.0305739999999997
  endloop
endfacet
facet normal 6.586316892027417e-33 -1.1081021198882711e-33 1.0
  outer loop
    vertex 2.5814113576032827 34.99936286062267 3.0305739999999997
    vertex 6.993748832774916 9.841317930304811 3.0305739999999997
    vertex 3.3122754629073667 36.09317829234631 3.0305739999999997
  endloop
endfacet
facet normal 6.586316892027417e-33 -1.1081021198882711e-33 1.0
  outer loop
    vertex 3.3122754629073667 36.09317829234631 3.0305739999999997
    vertex 6.993748832774916 9.841317930304811 3.0305739999999997
    vertex 4.179658487768276 37.08223907272428 3.0305739999999997
  endloop
endfacet
facet normal 6.586316892027417e-33 -1.1081021198882711e-33 1.0
  outer loop
    vertex 4.179658487768276 37.08223907272428 3.0305739999999997
    vertex 6.993748832774916 9.841317930304811 3.0305739999999997
    vertex 5.168719268146218 37.94962209758506 3.0305739999999997
  endloop
endfacet
facet normal 6.586316892027417e-33 -1.1081021198882711e-33 1.0
  outer loop
    vertex 5.168719268146218 37.94962209758506 3.0305739999999997
    vertex 6.993748832774916 9.841317930304811 3.0305739999999997
    vertex 6.262534699869808 38.68048620288923 3.0305739999999997
  endloop
endfacet
facet normal 6.586316892027417e-33 -1.1081021198882711e-33 1.0
  outer loop
    vertex 6.262534699869808 38.68048620288923 3.0305739999999997
    vertex 6.993748832774916 9.841317930304811 3.0305739999999997
    vertex 7.442389297639145 39.26232610116125 3.0305739999999997
  endloop
endfacet
facet normal 6.586316892027417e-33 -1.1081021198882711e-33 1.0
  outer loop
    vertex 7.442389297639145 39.26232610116125 3.0305739999999997
    vertex 6.993748832774916 9.841317930304811 3.0305739999999997
    vertex 7.991246231707292 8.83979422221035 3.0305739999999997
  endloop
endfacet
facet normal 6.586316892027417e-33 -1.1081021198882711e-33 1.0
  outer loop
    vertex 7.442389297639145 39.26232610116125 3.0305739999999997
    vertex 7.991246231707292 8.83979422221035 3.0305739999999997
    vertex 8.68809542216905 39.685186350425035 3.0305739999999997
  endloop
endfacet
facet normal 6.586316892027417e-33 -1.1081021198882711e-33 1.0
  outer loop
    vertex 8.68809542216905 39.685186350425035 3.0305739999999997
    vertex 7.991246231707292 8.83979422221035 3.0305739999999997
    vertex 9.133089165436742 8.006580256026233 3.0305739999999997
  endloop
endfacet
facet normal 6.586316892027417e-33 -1.1081021198882711e-33 1.0
  outer loop
    vertex 8.68809542216905 39.685186350425035 3.0305739999999997
    vertex 9.133089165436742 8.006580256026233 3.0305739999999997
    vertex 9.978338696293669 39.94183169457683 3.0305739999999997
  endloop
endfacet
facet normal 6.586316892027417e-33 -1.1081021198882711e-33 1.0
  outer loop
    vertex 9.978338696293669 39.94183169457683 3.0305739999999997
    vertex 9.133089165436742 8.006580256026233 3.0305739999999997
    vertex 10.391181581214116 7.362177996474337 3.0305739999999997
  endloop
endfacet
facet normal 6.586316892027417e-33 -1.1081021198882711e-33 1.0
  outer loop
    vertex 9.978338696293669 39.94183169457683 3.0305739999999997
    vertex 10.391181581214116 7.362177996474337 3.0305739999999997
    vertex 11.291042699869795 40.02787086062265 3.0305739999999997
  endloop
endfacet
facet normal 6.586316892027417e-33 -1.1081021198882711e-33 1.0
  outer loop
    vertex 11.291042699869795 40.02787086062265 3.0305739999999997
    vertex 10.391181581214116 7.362177996474337 3.0305739999999997
    vertex 11.734567005226038 6.922443529660044 3.0305739999999997
  endloop
endfacet
facet normal 6.586316892027417e-33 -1.1081021198882711e-33 1.0
  outer loop
    vertex 11.291042699869795 40.02787086062265 3.0305739999999997
    vertex 11.734567005226038 6.922443529660044 3.0305739999999997
    vertex 22.79854608765903 39.91331816260906 3.0305739999999997
  endloop
endfacet
facet normal 6.586316892027417e-33 -1.1081021198882711e-33 1.0
  outer loop
    vertex 22.79854608765903 39.91331816260906 3.0305739999999997
    vertex 11.734567005226038 6.922443529660044 3.0305739999999997
    vertex 13.13019025394372 6.6981969100849685 3.0305739999999997
  endloop
endfacet
facet normal 6.586316892027417e-33 -1.1081021198882711e-33 1.0
  outer loop
    vertex 22.79854608765903 39.91331816260906 3.0305739999999997
    vertex 13.13019025394372 6.6981969100849685 3.0305739999999997
    vertex 14.347896878906814 6.682145040757313 3.0305739999999997
  endloop
endfacet
facet normal 6.586316892027417e-33 -1.1081021198882711e-33 1.0
  outer loop
    vertex 22.79854608765903 39.91331816260906 3.0305739999999997
    vertex 14.347896878906814 6.682145040757313 3.0305739999999997
    vertex 15.556647830587792 6.8304293076174725 3.0305739999999997
  endloop
endfacet
facet normal 6.586316892027417e-33 -1.1081021198882711e-33 1.0
  outer loop
    vertex 22.79854608765903 39.91331816260906 3.0305739999999997
    vertex 15.556647830587792 6.8304293076174725 3.0305739999999997
    vertex 16.734366618152517 7.140341463566544 3.0305739999999997
  endloop
endfacet
facet normal 6.586316892027417e-33 -1.1081021198882711e-33 1.0
  outer loop
    vertex 22.79854608765903 39.91331816260906 3.0305739999999997
    vertex 16.734366618152517 7.140341463566544 3.0305739999999997
    vertex 17.859543518706698 7.60622130799771 3.0305739999999997
  endloop
endfacet
facet normal 6.586316892027417e-33 -1.1081021198882711e-33 1.0
  outer loop
    vertex 22.79854608765903 39.91331816260906 3.0305739999999997
    vertex 17.859543518706698 7.60622130799771 3.0305739999999997
    vertex 18.91162842844498 8.219560064060712 3.0305739999999997
  endloop
endfacet
facet normal 6.586316892027417e-33 -1.1081021198882711e-33 1.0
  outer loop
    vertex 22.79854608765903 39.91331816260906 3.0305739999999997
    vertex 18.91162842844498 8.219560064060712 3.0305739999999997
    vertex 19.87140618742539 8.969155782001033 3.0305739999999997
  endloop
endfacet
facet normal 6.586316892027417e-33 -1.1081021198882711e-33 1.0
  outer loop
    vertex 22.79854608765903 39.91331816260906 3.0305739999999997
    vertex 19.87140618742539 8.969155782001033 3.0305739999999997
    vertex 21.32007352307984 19.48790693030481 3.0305739999999997
  endloop
endfacet
facet normal 6.586316892027417e-33 -1.1081021198882711e-33 1.0
  outer loop
    vertex 21.32007352307984 19.48790693030481 3.0305739999999997
    vertex 19.87140618742539 8.969155782001033 3.0305739999999997
    vertex 20.721347523079842 9.841317930304811 3.0305739999999997
  endloop
endfacet
facet normal 6.586316892027417e-33 -1.1081021198882711e-33 1.0
  outer loop
    vertex 22.79854608765903 39.91331816260906 3.0305739999999997
    vertex 21.32007352307984 19.48790693030481 3.0305739999999997
    vertex 22.79854608765903 31.341113380431512 3.0305739999999997
  endloop
endfacet
facet normal -6.272048931794245e-33 1.1118749068213833e-33 1.0
  outer loop
    vertex 23.011217777273824 28.560691456616183 0.9768350000000005
    vertex 22.79854608765903 36.570443714941746 0.9768350000000005
    vertex 22.79854608765903 31.341113380431512 0.9768350000000005
  endloop
endfacet
facet normal -6.272048931794245e-33 1.1118749068213833e-33 1.0
  outer loop
    vertex 22.79854608765903 36.570443714941746 0.9768350000000005
    vertex 23.011217777273824 28.560691456616183 0.9768350000000005
    vertex 28.79616368509968 36.570443714941746 0.9768350000000005
  endloop
endfacet
facet normal -6.272048931794245e-33 1.1118749068213833e-33 1.0
  outer loop
    vertex 28.79616368509968 36.570443714941746 0.9768350000000005
    vertex 23.011217777273824 28.560691456616183 0.9768350000000005
    vertex 23.93626900209728 25.930053596049063 0.9768350000000005
  endloop
endfacet
facet normal -6.272048931794245e-33 1.1118749068213833e-33 1.0
  outer loop
    vertex 28.79616368509968 36.570443714941746 0.9768350000000005
    vertex 23.93626900209728 25.930053596049063 0.9768350000000005
    vertex 25.510659049877116 23.62847342159317 0.9768350000000005
  endloop
endfacet
facet normal -6.272048931794245e-33 1.1118749068213833e-33 1.0
  outer loop
    vertex 28.79616368509968 36.570443714941746 0.9768350000000005
    vertex 25.510659049877116 23.62847342159317 0.9768350000000005
    vertex 27.627095840659706 21.812799818596627 0.9768350000000005
  endloop
endfacet
facet normal -6.272048931794245e-33 1.1118749068213833e-33 1.0
  outer loop
    vertex 28.79616368509968 36.570443714941746 0.9768350000000005
    vertex 27.627095840659706 21.812799818596627 0.9768350000000005
    vertex 30.14134770473038 20.60676794256113 0.9768350000000005
  endloop
endfacet
facet normal -6.272048931794245e-33 1.1118749068213833e-33 1.0
  outer loop
    vertex 28.79616368509968 36.570443714941746 0.9768350000000005
    vertex 30.14134770473038 20.60676794256113 0.9768350000000005
    vertex 29.427750408449878 30.279996193347767 0.9768350000000005
  endloop
endfacet
facet normal -6.272048931794245e-33 1.1118749068213833e-33 1.0
  outer loop
    vertex 29.427750408449878 30.279996193347767 0.9768350000000005
    vertex 30.14134770473038 20.60676794256113 0.9768350000000005
    vertex 29.68917477557568 29.251495292989365 0.9768350000000005
  endloop
endfacet
facet normal -6.272048931794245e-33 1.1118749068213833e-33 1.0
  outer loop
    vertex 29.68917477557568 29.251495292989365 0.9768350000000005
    vertex 30.14134770473038 20.60676794256113 0.9768350000000005
    vertex 30.2078869443216 28.325701316037666 0.9768350000000005
  endloop
endfacet
facet normal -6.272048931794245e-33 1.1118749068213833e-33 1.0
  outer loop
    vertex 30.2078869443216 28.325701316037666 0.9768350000000005
    vertex 30.14134770473038 20.60676794256113 0.9768350000000005
    vertex 32.882072532550396 20.09256687277659 0.9768350000000005
  endloop
endfacet
facet normal -6.272048931794245e-33 1.1118749068213833e-33 1.0
  outer loop
    vertex 30.2078869443216 28.325701316037666 0.9768350000000005
    vertex 32.882072532550396 20.09256687277659 0.9768350000000005
    vertex 30.94853753760002 27.565705592075023 0.9768350000000005
  endloop
endfacet
facet normal -6.272048931794245e-33 1.1118749068213833e-33 1.0
  outer loop
    vertex 30.94853753760002 27.565705592075023 0.9768350000000005
    vertex 32.882072532550396 20.09256687277659 0.9768350000000005
    vertex 31.860652441461962 27.023300573737185 0.9768350000000005
  endloop
endfacet
facet normal -6.272048931794245e-33 1.1118749068213833e-33 1.0
  outer loop
    vertex 31.860652441461962 27.023300573737185 0.9768350000000005
    vertex 32.882072532550396 20.09256687277659 0.9768350000000005
    vertex 32.882072532550396 26.735450266657196 0.9768350000000005
  endloop
endfacet
facet normal -6.272048931794245e-33 1.1118749068213833e-33 1.0
  outer loop
    vertex 32.882072532550396 26.735450266657196 0.9768350000000005
    vertex 32.882072532550396 20.09256687277659 0.9768350000000005
    vertex 35.66249445636573 20.30523856239138 0.9768350000000005
  endloop
endfacet
facet normal -6.272048931794245e-33 1.1118749068213833e-33 1.0
  outer loop
    vertex 32.882072532550396 26.735450266657196 0.9768350000000005
    vertex 35.66249445636573 20.30523856239138 0.9768350000000005
    vertex 33.943189719634134 26.72177119356743 0.9768350000000005
  endloop
endfacet
facet normal -6.272048931794245e-33 1.1118749068213833e-33 1.0
  outer loop
    vertex 33.943189719634134 26.72177119356743 0.9768350000000005
    vertex 35.66249445636573 20.30523856239138 0.9768350000000005
    vertex 34.97169061999255 26.983195560693222 0.9768350000000005
  endloop
endfacet
facet normal -6.272048931794245e-33 1.1118749068213833e-33 1.0
  outer loop
    vertex 34.97169061999255 26.983195560693222 0.9768350000000005
    vertex 35.66249445636573 20.30523856239138 0.9768350000000005
    vertex 35.89748459694427 27.501907729439143 0.9768350000000005
  endloop
endfacet
facet normal -6.272048931794245e-33 1.1118749068213833e-33 1.0
  outer loop
    vertex 35.89748459694427 27.501907729439143 0.9768350000000005
    vertex 35.66249445636573 20.30523856239138 0.9768350000000005
    vertex 38.293132316932855 21.230289787214843 0.9768350000000005
  endloop
endfacet
facet normal -6.272048931794245e-33 1.1118749068213833e-33 1.0
  outer loop
    vertex 35.89748459694427 27.501907729439143 0.9768350000000005
    vertex 38.293132316932855 21.230289787214843 0.9768350000000005
    vertex 36.657480320906885 28.24255832271755 0.9768350000000005
  endloop
endfacet
facet normal -6.272048931794245e-33 1.1118749068213833e-33 1.0
  outer loop
    vertex 36.657480320906885 28.24255832271755 0.9768350000000005
    vertex 38.293132316932855 21.230289787214843 0.9768350000000005
    vertex 37.19988533924474 29.154673226579497 0.9768350000000005
  endloop
endfacet
facet normal -6.272048931794245e-33 1.1118749068213833e-33 1.0
  outer loop
    vertex 37.19988533924474 29.154673226579497 0.9768350000000005
    vertex 38.293132316932855 21.230289787214843 0.9768350000000005
    vertex 37.48773564632474 30.17609331766793 0.9768350000000005
  endloop
endfacet
facet normal -6.272048931794245e-33 1.1118749068213833e-33 1.0
  outer loop
    vertex 37.48773564632474 30.17609331766793 0.9768350000000005
    vertex 38.293132316932855 21.230289787214843 0.9768350000000005
    vertex 37.50141471941449 31.2372105047517 0.9768350000000005
  endloop
endfacet
facet normal -6.272048931794245e-33 1.1118749068213833e-33 1.0
  outer loop
    vertex 37.50141471941449 31.2372105047517 0.9768350000000005
    vertex 38.293132316932855 21.230289787214843 0.9768350000000005
    vertex 38.28600225136958 36.570443714941746 0.9768350000000005
  endloop
endfacet
facet normal -6.272048931794245e-33 1.1118749068213833e-33 1.0
  outer loop
    vertex 38.28600225136958 36.570443714941746 0.9768350000000005
    vertex 38.293132316932855 21.230289787214843 0.9768350000000005
    vertex 44.13061904020532 36.570443714941746 0.9768350000000005
  endloop
endfacet
facet normal -6.272048931794245e-33 1.1118749068213833e-33 1.0
  outer loop
    vertex 44.13061904020532 36.570443714941746 0.9768350000000005
    vertex 38.293132316932855 21.230289787214843 0.9768350000000005
    vertex 40.59471249138874 22.80467983499468 0.9768350000000005
  endloop
endfacet
facet normal -6.272048931794245e-33 1.1118749068213833e-33 1.0
  outer loop
    vertex 44.13061904020532 36.570443714941746 0.9768350000000005
    vertex 40.59471249138874 22.80467983499468 0.9768350000000005
    vertex 42.41038609438529 24.92111662577727 0.9768350000000005
  endloop
endfacet
facet normal -6.272048931794245e-33 1.1118749068213833e-33 1.0
  outer loop
    vertex 44.13061904020532 36.570443714941746 0.9768350000000005
    vertex 42.41038609438529 24.92111662577727 0.9768350000000005
    vertex 43.616417970420784 27.435368489847942 0.9768350000000005
  endloop
endfacet
facet normal -6.272048931794245e-33 1.1118749068213833e-33 1.0
  outer loop
    vertex 44.13061904020532 36.570443714941746 0.9768350000000005
    vertex 43.616417970420784 27.435368489847942 0.9768350000000005
    vertex 44.13061904020532 30.176093317667952 0.9768350000000005
  endloop
endfacet
facet normal -6.272048931794245e-33 1.1118749068213833e-33 1.0
  outer loop
    vertex 36.72127818354274 33.1915053820618 0.9768350000000005
    vertex 38.28600225136958 36.570443714941746 0.9768350000000005
    vertex 36.15593670700896 33.77161307203552 0.9768350000000005
  endloop
endfacet
facet normal -6.272048931794245e-33 1.1118749068213833e-33 1.0
  outer loop
    vertex 38.28600225136958 36.570443714941746 0.9768350000000005
    vertex 36.72127818354274 33.1915053820618 0.9768350000000005
    vertex 37.239990352288686 32.26571140511009 0.9768350000000005
  endloop
endfacet
facet normal -6.272048931794245e-33 1.1118749068213833e-33 1.0
  outer loop
    vertex 38.28600225136958 36.570443714941746 0.9768350000000005
    vertex 37.239990352288686 32.26571140511009 0.9768350000000005
    vertex 37.50141471941449 31.2372105047517 0.9768350000000005
  endloop
endfacet
facet normal -6.272048931794245e-33 1.1118749068213833e-33 1.0
  outer loop
    vertex 28.79616368509968 36.570443714941746 0.9768350000000005
    vertex 30.271684806957484 33.27464837538191 0.9768350000000005
    vertex 30.83587452307983 33.84960138640344 0.9768350000000005
  endloop
endfacet
facet normal -6.272048931794245e-33 1.1118749068213833e-33 1.0
  outer loop
    vertex 30.271684806957484 33.27464837538191 0.9768350000000005
    vertex 28.79616368509968 36.570443714941746 0.9768350000000005
    vertex 29.729279788619635 32.36253347151997 0.9768350000000005
  endloop
endfacet
facet normal -6.272048931794245e-33 1.1118749068213833e-33 1.0
  outer loop
    vertex 29.729279788619635 32.36253347151997 0.9768350000000005
    vertex 28.79616368509968 36.570443714941746 0.9768350000000005
    vertex 29.441429481539654 31.341113380431523 0.9768350000000005
  endloop
endfacet
facet normal -6.272048931794245e-33 1.1118749068213833e-33 1.0
  outer loop
    vertex 29.441429481539654 31.341113380431523 0.9768350000000005
    vertex 28.79616368509968 36.570443714941746 0.9768350000000005
    vertex 29.427750408449878 30.279996193347767 0.9768350000000005
  endloop
endfacet
facet normal -0.9828517091037917 0.18439771666632826 -1.2504646702456285e-32
  outer loop
    vertex 44.13061904020532 30.176093317667952 3.0305739999999997
    vertex 43.616417970420784 27.435368489847942 0.9768350000000005
    vertex 43.616417970420784 27.435368489847942 3.0305739999999997
  endloop
endfacet
facet normal -0.9828517091037917 0.18439771666632826 -1.2504646702456285e-32
  outer loop
    vertex 43.616417970420784 27.435368489847942 0.9768350000000005
    vertex 44.13061904020532 30.176093317667952 3.0305739999999997
    vertex 44.13061904020532 30.176093317667952 0.9768350000000005
  endloop
endfacet
facet normal -1.0 0.0 0.0
  outer loop
    vertex 44.13061904020532 39.700965714941745 3.0305739999999997
    vertex 44.13061904020532 30.176093317667952 0.9768350000000005
    vertex 44.13061904020532 30.176093317667952 3.0305739999999997
  endloop
endfacet
facet normal -1.0 0.0 0.0
  outer loop
    vertex 44.13061904020532 30.176093317667952 0.9768350000000005
    vertex 44.13061904020532 39.700965714941745 3.0305739999999997
    vertex 44.13061904020532 36.570443714941746 0.9768350000000005
  endloop
endfacet
facet normal -1.0 0.0 0.0
  outer loop
    vertex 44.13061904020532 36.570443714941746 0.9768350000000005
    vertex 44.13061904020532 39.700965714941745 3.0305739999999997
    vertex 44.13061904020532 36.570443714941746 0.0
  endloop
endfacet
facet normal -1.0 0.0 0.0
  outer loop
    vertex 44.13061904020532 36.570443714941746 0.0
    vertex 44.13061904020532 39.700965714941745 3.0305739999999997
    vertex 44.13061904020532 39.700965714941745 0.0
  endloop
endfacet
facet normal 1.0 -0.0 -0.0
  outer loop
    vertex 22.79854608765903 39.91331816260906 0.0
    vertex 22.79854608765903 36.570443714941746 0.9768350000000005
    vertex 22.79854608765903 36.570443714941746 0.0
  endloop
endfacet
facet normal 1.0 -0.0 -0.0
  outer loop
    vertex 22.79854608765903 36.570443714941746 0.9768350000000005
    vertex 22.79854608765903 31.341113380431512 3.0305739999999997
    vertex 22.79854608765903 31.341113380431512 0.9768350000000005
  endloop
endfacet
facet normal 1.0 -0.0 -0.0
  outer loop
    vertex 22.79854608765903 31.341113380431512 3.0305739999999997
    vertex 22.79854608765903 36.570443714941746 0.9768350000000005
    vertex 22.79854608765903 39.91331816260906 3.0305739999999997
  endloop
endfacet
facet normal 1.0 -0.0 -0.0
  outer loop
    vertex 22.79854608765903 39.91331816260906 3.0305739999999997
    vertex 22.79854608765903 36.570443714941746 0.9768350000000005
    vertex 22.79854608765903 39.91331816260906 0.0
  endloop
endfacet
facet normal 0.9970874901823675 0.07626622399088111 7.093426274914232e-33
  outer loop
    vertex 22.79854608765903 31.341113380431512 0.9768350000000005
    vertex 23.011217777273824 28.560691456616183 3.0305739999999997
    vertex 23.011217777273824 28.560691456616183 0.9768350000000005
  endloop
endfacet
facet normal 0.9970874901823675 0.07626622399088111 7.093426274914232e-33
  outer loop
    vertex 23.011217777273824 28.560691456616183 3.0305739999999997
    vertex 22.79854608765903 31.341113380431512 0.9768350000000005
    vertex 22.79854608765903 31.341113380431512 3.0305739999999997
  endloop
endfacet
facet normal 0.943373406570002 0.33173274751900794 1.1988005691779195e-33
  outer loop
    vertex 23.011217777273824 28.560691456616183 0.9768350000000005
    vertex 23.93626900209728 25.930053596049063 3.0305739999999997
    vertex 23.93626900209728 25.930053596049063 0.9768350000000005
  endloop
endfacet
facet normal 0.943373406570002 0.33173274751900794 1.1988005691779195e-33
  outer loop
    vertex 23.93626900209728 25.930053596049063 3.0305739999999997
    vertex 23.011217777273824 28.560691456616183 0.9768350000000005
    vertex 23.011217777273824 28.560691456616183 3.0305739999999997
  endloop
endfacet
facet normal 0.8253699842981573 0.5645922325180003 -4.777521414236259e-33
  outer loop
    vertex 23.93626900209728 25.930053596049063 0.9768350000000005
    vertex 25.510659049877116 23.62847342159317 3.0305739999999997
    vertex 25.510659049877116 23.62847342159317 0.9768350000000005
  endloop
endfacet
facet normal 0.8253699842981573 0.5645922325180003 -4.777521414236259e-33
  outer loop
    vertex 25.510659049877116 23.62847342159317 3.0305739999999997
    vertex 23.93626900209728 25.930053596049063 0.9768350000000005
    vertex 23.93626900209728 25.930053596049063 3.0305739999999997
  endloop
endfacet
facet normal 0.6511189615847826 0.7589756899036717 -1.0428263208497707e-32
  outer loop
    vertex 25.510659049877116 23.62847342159317 3.0305739999999997
    vertex 27.627095840659706 21.812799818596627 0.9768350000000005
    vertex 25.510659049877116 23.62847342159317 0.9768350000000005
  endloop
endfacet
facet normal 0.6511189615847826 0.7589756899036717 -1.0428263208497707e-32
  outer loop
    vertex 27.627095840659706 21.812799818596627 0.9768350000000005
    vertex 25.510659049877116 23.62847342159317 3.0305739999999997
    vertex 27.627095840659706 21.812799818596627 3.0305739999999997
  endloop
endfacet
facet normal 0.4324952576643661 0.9016362082890381 -8.580699003001264e-17
  outer loop
    vertex 27.627095840659706 21.812799818596627 3.0305739999999997
    vertex 30.14134770473038 20.60676794256113 0.9768350000000005
    vertex 27.627095840659706 21.812799818596627 0.9768350000000005
  endloop
endfacet
facet normal 0.4324952576643661 0.9016362082890381 -8.580699003001264e-17
  outer loop
    vertex 30.14134770473038 20.60676794256113 0.9768350000000005
    vertex 27.627095840659706 21.812799818596627 3.0305739999999997
    vertex 30.14134770473038 20.60676794256113 3.0305739999999997
  endloop
endfacet
facet normal 0.4324952576643661 0.9016362082890381 -8.580699003001264e-17
  outer loop
    vertex 30.14134770473038 20.60676794256113 3.0305739999999997
    vertex 27.627095840659706 21.812799818596627 3.0305739999999997
    vertex 27.761608287890713 21.74827712641833 3.0305739999999997
  endloop
endfacet
facet normal 0.4324952576643661 0.9016362082890381 -8.580699003001264e-17
  outer loop
    vertex 30.14134770473038 20.60676794256113 3.0305739999999997
    vertex 27.761608287890713 21.74827712641833 3.0305739999999997
    vertex 28.845701863798595 21.228261042177113 3.0305739999999997
  endloop
endfacet
facet normal 0.18439771666633084 0.9828517091037913 -1.9261082280997152e-32
  outer loop
    vertex 30.14134770473038 20.60676794256113 3.0305739999999997
    vertex 32.882072532550396 20.09256687277659 0.9768350000000005
    vertex 30.14134770473038 20.60676794256113 0.9768350000000005
  endloop
endfacet
facet normal 0.18439771666633084 0.9828517091037913 -1.9261082280997152e-32
  outer loop
    vertex 32.882072532550396 20.09256687277659 0.9768350000000005
    vertex 30.14134770473038 20.60676794256113 3.0305739999999997
    vertex 32.882072532550396 20.09256687277659 3.0305739999999997
  endloop
endfacet
facet normal -0.07626622399088095 0.9970874901823676 -2.1841217536368043e-32
  outer loop
    vertex 32.882072532550396 20.09256687277659 3.0305739999999997
    vertex 35.66249445636573 20.30523856239138 0.9768350000000005
    vertex 32.882072532550396 20.09256687277659 0.9768350000000005
  endloop
endfacet
facet normal -0.07626622399088095 0.9970874901823676 -2.1841217536368043e-32
  outer loop
    vertex 35.66249445636573 20.30523856239138 0.9768350000000005
    vertex 32.882072532550396 20.09256687277659 3.0305739999999997
    vertex 35.66249445636573 20.30523856239138 3.0305739999999997
  endloop
endfacet
facet normal -0.33173274751900905 0.9433734065700015 -2.293290991095402e-32
  outer loop
    vertex 35.66249445636573 20.30523856239138 3.0305739999999997
    vertex 38.293132316932855 21.230289787214843 0.9768350000000005
    vertex 35.66249445636573 20.30523856239138 0.9768350000000005
  endloop
endfacet
facet normal -0.33173274751900905 0.9433734065700015 -2.293290991095402e-32
  outer loop
    vertex 38.293132316932855 21.230289787214843 0.9768350000000005
    vertex 35.66249445636573 20.30523856239138 3.0305739999999997
    vertex 38.293132316932855 21.230289787214843 3.0305739999999997
  endloop
endfacet
facet normal -0.5645922325180022 0.825369984298156 -2.2461762373534005e-32
  outer loop
    vertex 38.293132316932855 21.230289787214843 3.0305739999999997
    vertex 40.59471249138874 22.80467983499468 0.9768350000000005
    vertex 38.293132316932855 21.230289787214843 0.9768350000000005
  endloop
endfacet
facet normal -0.5645922325180022 0.825369984298156 -2.2461762373534005e-32
  outer loop
    vertex 40.59471249138874 22.80467983499468 0.9768350000000005
    vertex 38.293132316932855 21.230289787214843 3.0305739999999997
    vertex 40.59471249138874 22.80467983499468 3.0305739999999997
  endloop
endfacet
facet normal -0.7589756899036713 0.6511189615847832 -2.045988285017507e-32
  outer loop
    vertex 42.41038609438529 24.92111662577727 3.0305739999999997
    vertex 40.59471249138874 22.80467983499468 0.9768350000000005
    vertex 40.59471249138874 22.80467983499468 3.0305739999999997
  endloop
endfacet
facet normal -0.7589756899036713 0.6511189615847832 -2.045988285017507e-32
  outer loop
    vertex 40.59471249138874 22.80467983499468 0.9768350000000005
    vertex 42.41038609438529 24.92111662577727 3.0305739999999997
    vertex 42.41038609438529 24.92111662577727 0.9768350000000005
  endloop
endfacet
facet normal -0.9016362082890377 0.43249525766436686 -1.706369612213177e-32
  outer loop
    vertex 43.616417970420784 27.435368489847942 3.0305739999999997
    vertex 42.41038609438529 24.92111662577727 0.9768350000000005
    vertex 42.41038609438529 24.92111662577727 3.0305739999999997
  endloop
endfacet
facet normal -0.9016362082890377 0.43249525766436686 -1.706369612213177e-32
  outer loop
    vertex 42.41038609438529 24.92111662577727 0.9768350000000005
    vertex 43.616417970420784 27.435368489847942 3.0305739999999997
    vertex 43.616417970420784 27.435368489847942 0.9768350000000005
  endloop
endfacet
facet normal 0.8001299726922403 0.5998266639617773 -0.0
  outer loop
    vertex 28.79616368509968 36.570443714941746 0.0
    vertex 30.83587452307983 33.84960138640344 0.9768350000000005
    vertex 30.83587452307983 33.84960138640344 0.0
  endloop
endfacet
facet normal 0.8001299726922403 0.5998266639617773 -0.0
  outer loop
    vertex 30.83587452307983 33.84960138640344 0.9768350000000005
    vertex 28.79616368509968 36.570443714941746 0.0
    vertex 28.79616368509968 36.570443714941746 0.9768350000000005
  endloop
endfacet
facet normal 0.009954115920618636 0.9999504565608432 -8.336566750663374e-20
  outer loop
    vertex 44.13061904020532 39.700965714941745 3.0305739999999997
    vertex 46.55379652307982 39.67684393030481 0.0
    vertex 44.13061904020532 39.700965714941745 0.0
  endloop
endfacet
facet normal 0.009954115920618636 0.9999504565608432 -8.336566750663374e-20
  outer loop
    vertex 46.55379652307982 39.67684393030481 0.0
    vertex 44.13061904020532 39.700965714941745 3.0305739999999997
    vertex 46.55379652307982 39.67684393030481 3.0305739999999997
  endloop
endfacet
facet normal -0.0 1.0 -0.0
  outer loop
    vertex 22.79854608765903 36.570443714941746 0.9768350000000005
    vertex 28.79616368509968 36.570443714941746 0.0
    vertex 22.79854608765903 36.570443714941746 0.0
  endloop
endfacet
facet normal -0.0 1.0 -0.0
  outer loop
    vertex 28.79616368509968 36.570443714941746 0.0
    vertex 22.79854608765903 36.570443714941746 0.9768350000000005
    vertex 28.79616368509968 36.570443714941746 0.9768350000000005
  endloop
endfacet
facet normal -0.0 1.0 -0.0
  outer loop
    vertex 38.28600225136958 36.570443714941746 0.9768350000000005
    vertex 44.13061904020532 36.570443714941746 0.0
    vertex 38.28600225136958 36.570443714941746 0.0
  endloop
endfacet
facet normal -0.0 1.0 -0.0
  outer loop
    vertex 44.13061904020532 36.570443714941746 0.0
    vertex 38.28600225136958 36.570443714941746 0.9768350000000005
    vertex 44.13061904020532 36.570443714941746 0.9768350000000005
  endloop
endfacet
facet normal -0.9995212587652513 0.03093950995616285 0.0
  outer loop
    vertex 25.99672789383006 2.2480039737586326 3.0305739999999997
    vertex 26.530377523079828 19.48790693030481 0.0
    vertex 25.99672789383006 2.248003973758632 0.0
  endloop
endfacet
facet normal -0.9995212587652513 0.03093950995616285 0.0
  outer loop
    vertex 26.530377523079828 19.48790693030481 0.0
    vertex 25.99672789383006 2.2480039737586326 3.0305739999999997
    vertex 26.530377523079828 19.48790693030481 3.0305739999999997
  endloop
endfacet
facet normal 0.0 0.0 -1.0
  outer loop
    vertex 1.3200658659155788 31.283558864198817 0.0
    vertex 6.993748832774916 9.841317930304811 0.0
    vertex 1.2853985230798455 30.75463742265933 0.0
  endloop
endfacet
facet normal 0.0 0.0 -1.0
  outer loop
    vertex 6.993748832774916 9.841317930304811 0.0
    vertex 1.3200658659155788 31.283558864198817 0.0
    vertex 1.5767112100673446 32.57380213832348 0.0
  endloop
endfacet
facet normal 0.0 0.0 -1.0
  outer loop
    vertex 6.993748832774916 9.841317930304811 0.0
    vertex 1.5767112100673446 32.57380213832348 0.0
    vertex 1.9995714593312286 33.81950826285337 0.0
  endloop
endfacet
facet normal 0.0 0.0 -1.0
  outer loop
    vertex 6.993748832774916 9.841317930304811 0.0
    vertex 1.9995714593312286 33.81950826285337 0.0
    vertex 2.5814113576032827 34.99936286062267 0.0
  endloop
endfacet
facet normal 0.0 0.0 -1.0
  outer loop
    vertex 6.993748832774916 9.841317930304811 0.0
    vertex 2.5814113576032827 34.99936286062267 0.0
    vertex 3.3122754629073667 36.09317829234631 0.0
  endloop
endfacet
facet normal 0.0 0.0 -1.0
  outer loop
    vertex 6.993748832774916 9.841317930304811 0.0
    vertex 3.3122754629073667 36.09317829234631 0.0
    vertex 4.179658487768276 37.08223907272428 0.0
  endloop
endfacet
facet normal 0.0 0.0 -1.0
  outer loop
    vertex 6.993748832774916 9.841317930304811 0.0
    vertex 4.179658487768276 37.08223907272428 0.0
    vertex 5.168719268146218 37.94962209758506 0.0
  endloop
endfacet
facet normal 0.0 0.0 -1.0
  outer loop
    vertex 6.993748832774916 9.841317930304811 0.0
    vertex 5.168719268146218 37.94962209758506 0.0
    vertex 6.262534699869808 38.68048620288923 0.0
  endloop
endfacet
facet normal 0.0 0.0 -1.0
  outer loop
    vertex 6.993748832774916 9.841317930304811 0.0
    vertex 6.262534699869808 38.68048620288923 0.0
    vertex 7.442389297639145 39.26232610116125 0.0
  endloop
endfacet
facet normal 0.0 0.0 -1.0
  outer loop
    vertex 6.993748832774916 9.841317930304811 0.0
    vertex 7.442389297639145 39.26232610116125 0.0
    vertex 7.991246231707292 8.83979422221035 0.0
  endloop
endfacet
facet normal 0.0 0.0 -1.0
  outer loop
    vertex 7.991246231707292 8.83979422221035 0.0
    vertex 7.442389297639145 39.26232610116125 0.0
    vertex 8.68809542216905 39.685186350425035 0.0
  endloop
endfacet
facet normal 0.0 0.0 -1.0
  outer loop
    vertex 7.991246231707292 8.83979422221035 0.0
    vertex 8.68809542216905 39.685186350425035 0.0
    vertex 9.133089165436742 8.006580256026233 0.0
  endloop
endfacet
facet normal 0.0 0.0 -1.0
  outer loop
    vertex 9.133089165436742 8.006580256026233 0.0
    vertex 8.68809542216905 39.685186350425035 0.0
    vertex 9.978338696293669 39.94183169457683 0.0
  endloop
endfacet
facet normal 0.0 0.0 -1.0
  outer loop
    vertex 9.133089165436742 8.006580256026233 0.0
    vertex 9.978338696293669 39.94183169457683 0.0
    vertex 10.391181581214116 7.362177996474337 0.0
  endloop
endfacet
facet normal 0.0 0.0 -1.0
  outer loop
    vertex 10.391181581214116 7.362177996474337 0.0
    vertex 9.978338696293669 39.94183169457683 0.0
    vertex 11.291042699869795 40.02787086062265 0.0
  endloop
endfacet
facet normal 0.0 0.0 -1.0
  outer loop
    vertex 10.391181581214116 7.362177996474337 0.0
    vertex 11.291042699869795 40.02787086062265 0.0
    vertex 11.734567005226038 6.922443529660044 0.0
  endloop
endfacet
facet normal 0.0 0.0 -1.0
  outer loop
    vertex 11.734567005226038 6.922443529660044 0.0
    vertex 11.291042699869795 40.02787086062265 0.0
    vertex 22.79854608765903 39.91331816260906 0.0
  endloop
endfacet
facet normal 0.0 0.0 -1.0
  outer loop
    vertex 11.734567005226038 6.922443529660044 0.0
    vertex 22.79854608765903 39.91331816260906 0.0
    vertex 13.13019025394372 6.6981969100849685 0.0
  endloop
endfacet
facet normal 0.0 0.0 -1.0
  outer loop
    vertex 13.13019025394372 6.6981969100849685 0.0
    vertex 22.79854608765903 39.91331816260906 0.0
    vertex 14.347896878906814 6.682145040757313 0.0
  endloop
endfacet
facet normal 0.0 0.0 -1.0
  outer loop
    vertex 14.347896878906814 6.682145040757313 0.0
    vertex 22.79854608765903 39.91331816260906 0.0
    vertex 15.556647830587792 6.8304293076174725 0.0
  endloop
endfacet
facet normal 0.0 0.0 -1.0
  outer loop
    vertex 15.556647830587792 6.8304293076174725 0.0
    vertex 22.79854608765903 39.91331816260906 0.0
    vertex 16.734366618152517 7.140341463566544 0.0
  endloop
endfacet
facet normal 0.0 0.0 -1.0
  outer loop
    vertex 16.734366618152517 7.140341463566544 0.0
    vertex 22.79854608765903 39.91331816260906 0.0
    vertex 17.859543518706698 7.60622130799771 0.0
  endloop
endfacet
facet normal 0.0 0.0 -1.0
  outer loop
    vertex 17.859543518706698 7.60622130799771 0.0
    vertex 22.79854608765903 39.91331816260906 0.0
    vertex 18.91162842844498 8.219560064060712 0.0
  endloop
endfacet
facet normal 0.0 0.0 -1.0
  outer loop
    vertex 18.91162842844498 8.219560064060712 0.0
    vertex 22.79854608765903 39.91331816260906 0.0
    vertex 19.87140618742539 8.969155782001033 0.0
  endloop
endfacet
facet normal 0.0 0.0 -1.0
  outer loop
    vertex 19.87140618742539 8.969155782001033 0.0
    vertex 22.79854608765903 39.91331816260906 0.0
    vertex 21.32007352307984 19.48790693030481 0.0
  endloop
endfacet
facet normal 0.0 0.0 -1.0
  outer loop
    vertex 19.87140618742539 8.969155782001033 0.0
    vertex 21.32007352307984 19.48790693030481 0.0
    vertex 20.721347523079842 9.841317930304811 0.0
  endloop
endfacet
facet normal 0.0 0.0 -1.0
  outer loop
    vertex 21.32007352307984 19.48790693030481 0.0
    vertex 22.79854608765903 39.91331816260906 0.0
    vertex 22.79854608765903 36.570443714941746 0.0
  endloop
endfacet
facet normal 0.0 0.0 -1.0
  outer loop
    vertex 21.32007352307984 19.48790693030481 0.0
    vertex 22.79854608765903 36.570443714941746 0.0
    vertex 26.530377523079828 19.48790693030481 0.0
  endloop
endfacet
facet normal 0.0 0.0 -1.0
  outer loop
    vertex 26.530377523079828 19.48790693030481 0.0
    vertex 22.79854608765903 36.570443714941746 0.0
    vertex 28.79616368509968 36.570443714941746 0.0
  endloop
endfacet
facet normal 0.0 0.0 -1.0
  outer loop
    vertex 28.79616368509968 36.570443714941746 0.0
    vertex 29.441429481539654 31.341113380431523 0.0
    vertex 29.427750408449878 30.279996193347767 0.0
  endloop
endfacet
facet normal 0.0 0.0 -1.0
  outer loop
    vertex 29.441429481539654 31.341113380431523 0.0
    vertex 28.79616368509968 36.570443714941746 0.0
    vertex 29.729279788619635 32.36253347151997 0.0
  endloop
endfacet
facet normal 0.0 0.0 -1.0
  outer loop
    vertex 29.729279788619635 32.36253347151997 0.0
    vertex 28.79616368509968 36.570443714941746 0.0
    vertex 30.271684806957484 33.27464837538191 0.0
  endloop
endfacet
facet normal 0.0 0.0 -1.0
  outer loop
    vertex 30.271684806957484 33.27464837538191 0.0
    vertex 28.79616368509968 36.570443714941746 0.0
    vertex 30.83587452307983 33.84960138640344 0.0
  endloop
endfacet
facet normal 0.0 0.0 -1.0
  outer loop
    vertex 38.28600225136958 36.570443714941746 0.0
    vertex 36.72127818354274 33.1915053820618 0.0
    vertex 36.15593670700896 33.77161307203552 0.0
  endloop
endfacet
facet normal 0.0 0.0 -1.0
  outer loop
    vertex 36.72127818354274 33.1915053820618 0.0
    vertex 38.28600225136958 36.570443714941746 0.0
    vertex 37.239990352288686 32.26571140511009 0.0
  endloop
endfacet
facet normal 0.0 0.0 -1.0
  outer loop
    vertex 37.239990352288686 32.26571140511009 0.0
    vertex 38.28600225136958 36.570443714941746 0.0
    vertex 37.50141471941449 31.2372105047517 0.0
  endloop
endfacet
facet normal 0.0 0.0 -1.0
  outer loop
    vertex 46.55379652307982 39.67684393030481 0.0
    vertex 44.13061904020532 36.570443714941746 0.0
    vertex 44.13061904020532 39.700965714941745 0.0
  endloop
endfacet
facet normal 0.0 0.0 -1.0
  outer loop
    vertex 26.530377523079828 19.48790693030481 0.0
    vertex 52.42677683695621 2.2480039737586393 0.0
    vertex 25.99672789383006 2.248003973758632 0.0
  endloop
endfacet
facet normal 0.0 0.0 -1.0
  outer loop
    vertex 52.42677683695621 2.2480039737586393 0.0
    vertex 26.530377523079828 19.48790693030481 0.0
    vertex 30.2078869443216 28.325701316037666 0.0
  endloop
endfacet
facet normal 0.0 0.0 -1.0
  outer loop
    vertex 30.2078869443216 28.325701316037666 0.0
    vertex 26.530377523079828 19.48790693030481 0.0
    vertex 29.68917477557568 29.251495292989365 0.0
  endloop
endfacet
facet normal 0.0 0.0 -1.0
  outer loop
    vertex 29.68917477557568 29.251495292989365 0.0
    vertex 26.530377523079828 19.48790693030481 0.0
    vertex 29.427750408449878 30.279996193347767 0.0
  endloop
endfacet
facet normal 0.0 0.0 -1.0
  outer loop
    vertex 29.427750408449878 30.279996193347767 0.0
    vertex 26.530377523079828 19.48790693030481 0.0
    vertex 28.79616368509968 36.570443714941746 0.0
  endloop
endfacet
facet normal 0.0 0.0 -1.0
  outer loop
    vertex 52.42677683695621 2.2480039737586393 0.0
    vertex 30.2078869443216 28.325701316037666 0.0
    vertex 30.94853753760002 27.565705592075023 0.0
  endloop
endfacet
facet normal 0.0 0.0 -1.0
  outer loop
    vertex 52.42677683695621 2.2480039737586393 0.0
    vertex 30.94853753760002 27.565705592075023 0.0
    vertex 31.860652441461962 27.023300573737185 0.0
  endloop
endfacet
facet normal 0.0 0.0 -1.0
  outer loop
    vertex 52.42677683695621 2.2480039737586393 0.0
    vertex 31.860652441461962 27.023300573737185 0.0
    vertex 32.882072532550396 26.735450266657196 0.0
  endloop
endfacet
facet normal 0.0 0.0 -1.0
  outer loop
    vertex 52.42677683695621 2.2480039737586393 0.0
    vertex 32.882072532550396 26.735450266657196 0.0
    vertex 33.943189719634134 26.72177119356743 0.0
  endloop
endfacet
facet normal 0.0 0.0 -1.0
  outer loop
    vertex 52.42677683695621 2.2480039737586393 0.0
    vertex 33.943189719634134 26.72177119356743 0.0
    vertex 34.97169061999255 26.983195560693222 0.0
  endloop
endfacet
facet normal 0.0 0.0 -1.0
  outer loop
    vertex 52.42677683695621 2.2480039737586393 0.0
    vertex 34.97169061999255 26.983195560693222 0.0
    vertex 35.89748459694427 27.501907729439143 0.0
  endloop
endfacet
facet normal 0.0 0.0 -1.0
  outer loop
    vertex 52.42677683695621 2.2480039737586393 0.0
    vertex 35.89748459694427 27.501907729439143 0.0
    vertex 36.657480320906885 28.24255832271755 0.0
  endloop
endfacet
facet normal 0.0 0.0 -1.0
  outer loop
    vertex 52.42677683695621 2.2480039737586393 0.0
    vertex 36.657480320906885 28.24255832271755 0.0
    vertex 37.19988533924474 29.154673226579497 0.0
  endloop
endfacet
facet normal 0.0 0.0 -1.0
  outer loop
    vertex 52.42677683695621 2.2480039737586393 0.0
    vertex 37.19988533924474 29.154673226579497 0.0
    vertex 37.48773564632474 30.17609331766793 0.0
  endloop
endfacet
facet normal 0.0 0.0 -1.0
  outer loop
    vertex 52.42677683695621 2.2480039737586393 0.0
    vertex 37.48773564632474 30.17609331766793 0.0
    vertex 37.50141471941449 31.2372105047517 0.0
  endloop
endfacet
facet normal 0.0 0.0 -1.0
  outer loop
    vertex 52.42677683695621 2.2480039737586393 0.0
    vertex 37.50141471941449 31.2372105047517 0.0
    vertex 38.28600225136958 36.570443714941746 0.0
  endloop
endfacet
facet normal 0.0 0.0 -1.0
  outer loop
    vertex 52.42677683695621 2.2480039737586393 0.0
    vertex 38.28600225136958 36.570443714941746 0.0
    vertex 44.13061904020532 36.570443714941746 0.0
  endloop
endfacet
facet normal 0.0 0.0 -1.0
  outer loop
    vertex 52.42677683695621 2.2480039737586393 0.0
    vertex 44.13061904020532 36.570443714941746 0.0
    vertex 46.55379652307982 39.67684393030481 0.0
  endloop
endfacet
facet normal 0.0 0.0 -1.0
  outer loop
    vertex 52.42677683695621 2.2480039737586393 0.0
    vertex 46.55379652307982 39.67684393030481 0.0
    vertex 47.86650052665599 39.590804764259 0.0
  endloop
endfacet
facet normal 0.0 0.0 -1.0
  outer loop
    vertex 52.42677683695621 2.2480039737586393 0.0
    vertex 47.86650052665599 39.590804764259 0.0
    vertex 49.15674380078063 39.33415942010719 0.0
  endloop
endfacet
facet normal 0.0 0.0 -1.0
  outer loop
    vertex 52.42677683695621 2.2480039737586393 0.0
    vertex 49.15674380078063 39.33415942010719 0.0
    vertex 50.402449925310464 38.911299170843336 0.0
  endloop
endfacet
facet normal 0.0 0.0 -1.0
  outer loop
    vertex 52.42677683695621 2.2480039737586393 0.0
    vertex 50.402449925310464 38.911299170843336 0.0
    vertex 51.58230452307982 38.32945927257137 0.0
  endloop
endfacet
facet normal 0.0 0.0 -1.0
  outer loop
    vertex 52.42677683695621 2.2480039737586393 0.0
    vertex 51.58230452307982 38.32945927257137 0.0
    vertex 52.676119954803376 37.598595167267206 0.0
  endloop
endfacet
facet normal 0.0 0.0 -1.0
  outer loop
    vertex 52.42677683695621 2.2480039737586393 0.0
    vertex 52.676119954803376 37.598595167267206 0.0
    vertex 56.61081252307984 29.61982793030481 0.0
  endloop
endfacet
facet normal 0.0 0.0 -1.0
  outer loop
    vertex 56.61081252307984 29.61982793030481 0.0
    vertex 52.676119954803376 37.598595167267206 0.0
    vertex 53.66518073518141 36.73121214240641 0.0
  endloop
endfacet
facet normal 0.0 0.0 -1.0
  outer loop
    vertex 56.61081252307984 29.61982793030481 0.0
    vertex 53.66518073518141 36.73121214240641 0.0
    vertex 54.53256376004223 35.74215136202837 0.0
  endloop
endfacet
facet normal 0.0 0.0 -1.0
  outer loop
    vertex 56.61081252307984 29.61982793030481 0.0
    vertex 54.53256376004223 35.74215136202837 0.0
    vertex 55.263427865346394 34.6483359303048 0.0
  endloop
endfacet
facet normal 0.0 0.0 -1.0
  outer loop
    vertex 56.61081252307984 29.61982793030481 0.0
    vertex 55.263427865346394 34.6483359303048 0.0
    vertex 55.845267763618345 33.468481332535426 0.0
  endloop
endfacet
facet normal 0.0 0.0 -1.0
  outer loop
    vertex 56.61081252307984 29.61982793030481 0.0
    vertex 55.845267763618345 33.468481332535426 0.0
    vertex 56.268128012882215 32.22277520800559 0.0
  endloop
endfacet
facet normal 0.0 0.0 -1.0
  outer loop
    vertex 56.61081252307984 29.61982793030481 0.0
    vertex 56.268128012882215 32.22277520800559 0.0
    vertex 56.524773357034015 30.932531933880938 0.0
  endloop
endfacet
facet normal 1.8004860488679515e-16 -1.0 -6.397226917249601e-16
  outer loop
    vertex 52.42677683695621 2.2480039737586353 3.0305739999999997
    vertex 25.99672789383006 2.248003973758632 0.0
    vertex 52.42677683695621 2.2480039737586393 0.0
  endloop
endfacet
facet normal 1.8004860488679515e-16 -1.0 -6.397226917249601e-16
  outer loop
    vertex 25.99672789383006 2.248003973758632 0.0
    vertex 52.42677683695621 2.2480039737586353 3.0305739999999997
    vertex 25.99672789383006 2.2480039737586326 3.0305739999999997
  endloop
endfacet
endsolid pidike_v2
